<?xml version="1.0" standalone="no"?>
<!DOCTYPE svg PUBLIC "-//W3C//DTD SVG 20010904//EN"
 "http://www.w3.org/TR/2001/REC-SVG-20010904/DTD/svg10.dtd">
<svg version="1.0" xmlns="http://www.w3.org/2000/svg"
 width="256.000000pt" height="256.000000pt" viewBox="0 0 256.000000 256.000000"
 preserveAspectRatio="xMidYMid meet">
<metadata>
Created by potrace 1.14, written by Peter Selinger 2001-2017
</metadata>
<g transform="translate(0.000000,256.000000) scale(0.100000,-0.100000)"
fill="#000000" stroke="none">
<path d="M1033 2548 c-47 -75 -60 -201 -28 -279 19 -46 19 -46 -4 -98 -25 -59
-25 -109 2 -125 26 -16 46 2 69 64 27 70 28 159 3 221 -19 46 -19 46 3 97 24
56 28 102 10 120 -16 16 -45 15 -55 0z"/>
<path d="M653 2388 c-47 -75 -60 -201 -28 -279 19 -46 19 -46 -4 -98 -25 -59
-25 -109 2 -125 26 -16 46 2 69 64 27 70 28 159 3 221 -19 46 -19 46 3 97 24
56 28 102 10 120 -16 16 -45 15 -55 0z"/>
<path d="M1413 2388 c-47 -75 -60 -201 -28 -279 19 -46 19 -46 -4 -98 -25 -59
-25 -109 2 -125 26 -16 46 2 69 64 27 70 28 159 3 221 -19 46 -19 46 3 97 24
56 28 102 10 120 -16 16 -45 15 -55 0z"/>
<path d="M10 1745 c-14 -16 -9 -115 26 -551 27 -350 123 -604 312 -833 l64
-76 -193 -3 c-130 -2 -197 -6 -207 -14 -23 -19 -10 -100 24 -155 18 -29 49
-59 78 -78 l49 -30 877 0 877 0 49 30 c29 19 60 49 78 78 34 55 47 136 24 155
-10 8 -77 12 -208 14 l-193 3 47 55 c68 79 158 217 197 303 l33 74 70 6 c234
20 438 181 517 407 17 50 23 88 23 166 1 95 -1 103 -29 149 -19 31 -49 61 -79
80 -49 30 -51 30 -212 33 l-163 3 6 84 c4 61 2 89 -7 100 -11 13 -129 15
-1030 15 -903 0 -1019 -2 -1030 -15z m1980 -89 c0 -59 -41 -574 -51 -639 -15
-101 -70 -267 -124 -371 -58 -113 -121 -203 -209 -293 l-69 -73 -501 0 -500 0
-64 68 c-160 171 -275 392 -321 620 -17 80 -61 579 -61 683 l0 29 950 0 950 0
0 -24z m372 -186 c48 -14 95 -61 108 -109 29 -108 -41 -300 -147 -405 -72 -71
-191 -133 -280 -144 -35 -5 -63 -6 -63 -2 0 4 5 20 10 36 9 26 19 32 80 48
180 46 316 205 328 384 4 66 3 75 -18 97 -23 24 -27 25 -172 25 l-148 0 0 24
c0 55 2 56 139 56 69 0 143 -5 163 -10z m-47 -192 c-22 -133 -108 -245 -220
-287 -73 -27 -79 -27 -71 7 3 15 11 93 18 175 l12 147 134 0 134 0 -7 -42z
m-325 -1089 c0 -7 -19 -31 -43 -54 -36 -37 -50 -44 -97 -50 -30 -3 -415 -5
-855 -3 l-800 3 -35 22 c-30 19 -70 68 -70 87 0 3 428 6 950 6 700 0 950 -3
950 -11z"/>
<path d="M1054 1261 c-143 -35 -280 -184 -299 -327 -10 -72 9 -131 59 -180 99
-99 266 -76 397 55 131 131 154 298 55 397 -57 57 -126 75 -212 55z"/>
</g>
</svg>
